<?xml version="1.0" encoding="UTF-8" standalone="no"?>
<!-- Generator: Adobe Illustrator 18.1.1, SVG Export Plug-In . SVG Version: 6.00 Build 0)  -->

<svg
   xmlns:dc="http://purl.org/dc/elements/1.1/"
   xmlns:cc="http://creativecommons.org/ns#"
   xmlns:rdf="http://www.w3.org/1999/02/22-rdf-syntax-ns#"
   xmlns:svg="http://www.w3.org/2000/svg"
   xmlns="http://www.w3.org/2000/svg"
   xmlns:sodipodi="http://sodipodi.sourceforge.net/DTD/sodipodi-0.dtd"
   xmlns:inkscape="http://www.inkscape.org/namespaces/inkscape"
   version="1.1"
   id="Capa_1"
   x="0px"
   y="0px"
   viewBox="0 0 25.491 25.491"
   style="enable-background:new 0 0 25.491 25.491;"
   xml:space="preserve"
   width="512px"
   height="512px"
   sodipodi:docname="roman-balance.svg"
   inkscape:version="0.92.3 (unknown)"><metadata
   id="metadata11"><rdf:RDF><cc:Work
       rdf:about=""><dc:format>image/svg+xml</dc:format><dc:type
         rdf:resource="http://purl.org/dc/dcmitype/StillImage" /><dc:title></dc:title></cc:Work></rdf:RDF></metadata><defs
   id="defs9" /><sodipodi:namedview
   pagecolor="#ffffff"
   bordercolor="#666666"
   borderopacity="1"
   objecttolerance="10"
   gridtolerance="10"
   guidetolerance="10"
   inkscape:pageopacity="0"
   inkscape:pageshadow="2"
   inkscape:window-width="1406"
   inkscape:window-height="1176"
   id="namedview7"
   showgrid="false"
   inkscape:zoom="0.4609375"
   inkscape:cx="240.81356"
   inkscape:cy="256"
   inkscape:window-x="688"
   inkscape:window-y="481"
   inkscape:window-maximized="0"
   inkscape:current-layer="g4" />
<g
   id="g4">
	<path
   d="m 23.007932,17.270091 c -0.06232,0.02476 -0.128913,0.05293 -0.195504,0.07598 l -2.778029,-6.908361 0.598463,-0.04525 -0.0017,-0.4251568 -0.817018,-0.056346 -0.04781,-0.037564 c -0.0239,-0.017928 -0.05293,-0.033295 -0.08281,-0.041833 l -0.108423,-0.022197 c -0.03842,0 -0.07513,0.00768 -0.09647,0.017074 l -0.06147,0.00341 -0.04098,0.05037 -5.942797,-0.4302787 0.0017,-0.1084234 c 8.53e-4,-0.8392141 -0.05549,-3.5805331 -0.766648,-3.5805331 -0.711155,0 -0.765793,2.741319 -0.765793,3.5805331 l 0.0017,0.1178144 -5.9359676,0.4294249 -0.016221,-0.01366 c -0.0239,-0.019629 -0.052926,-0.032435 -0.082807,-0.041826 L 5.760929,9.811074 c -0.031588,0 -0.062322,0.00598 -0.092202,0.017075 l -0.060615,0.00341 -0.063176,0.070006 -0.7222535,0.070006 -8.537e-4,0.424303 0.4857709,0.03671 -2.7822978,6.917753 c -0.066591,-0.02476 -0.1323278,-0.05037 -0.1955036,-0.07683 l -0.5429707,-0.239898 0.2672167,0.529312 c 0.5549229,1.103015 2.045531,1.84149 3.7068847,1.84149 1.6605,0 3.1502545,-0.738475 3.7085922,-1.840637 l 0.2680705,-0.530165 -0.5446782,0.236483 c -0.062322,0.02817 -0.1280591,0.05293 -0.1955036,0.07854 l -2.7532711,-6.8486 5.7216822,0.414912 c 0.170745,2.00882 0.554922,2.00882 0.702617,2.00882 0.146841,0 0.532726,0 0.701764,-1.999429 l 5.720828,-0.414912 -2.752417,6.840065 c -0.06659,-0.0239 -0.131474,-0.05122 -0.195504,-0.07769 l -0.543824,-0.236482 0.267216,0.530165 c 0.554923,1.102162 2.045532,1.84149 3.708593,1.84149 1.6605,0 3.148547,-0.739328 3.707738,-1.842344 l 0.266363,-0.529311 z M 8.3784575,17.566334 c -1.6587925,0.517359 -3.5754107,0.517359 -5.2342032,0 l 2.615821,-6.502842 z m 8.5808155,0 2.615821,-6.502842 2.614113,6.502842 c -1.655377,0.519067 -3.571142,0.519067 -5.229934,0 z"
   id="path2"
   style="fill:#933ec5;stroke:#933ec5;stroke-width:0.85372746;stroke-opacity:1"
   inkscape:connector-curvature="0" />
</g>
</svg>